<svg width="350" height="350" viewBox="0 0 350 350" fill="none" xmlns="http://www.w3.org/2000/svg">
<g clip-path="url(#clip0_77_236)">
<path d="M344.934 328.243H0.280394C0.243572 328.243 0.207111 328.236 0.173092 328.222C0.139073 328.207 0.108163 328.187 0.0821256 328.16C0.0560886 328.134 0.0354349 328.102 0.0213437 328.068C0.00725261 328.033 0 327.996 0 327.959C0 327.922 0.00725261 327.885 0.0213437 327.85C0.0354349 327.816 0.0560886 327.784 0.0821256 327.758C0.108163 327.732 0.139073 327.711 0.173092 327.696C0.207111 327.682 0.243572 327.675 0.280394 327.675H344.933C345.007 327.675 345.079 327.705 345.131 327.758C345.184 327.811 345.213 327.884 345.213 327.959C345.213 328.035 345.184 328.107 345.131 328.16C345.079 328.213 345.007 328.243 344.933 328.243H344.934Z" fill="#292A2E"/>
<g opacity="0.65">
<path d="M344.934 328.243H0.280394C0.243572 328.243 0.207111 328.236 0.173092 328.222C0.139073 328.207 0.108163 328.187 0.0821256 328.16C0.0560886 328.134 0.0354349 328.102 0.0213437 328.068C0.00725261 328.033 0 327.996 0 327.959C0 327.922 0.00725261 327.885 0.0213437 327.85C0.0354349 327.816 0.0560886 327.784 0.0821256 327.758C0.108163 327.732 0.139073 327.711 0.173092 327.696C0.207111 327.682 0.243572 327.675 0.280394 327.675H344.933C345.007 327.675 345.079 327.705 345.131 327.758C345.184 327.811 345.213 327.884 345.213 327.959C345.213 328.035 345.184 328.107 345.131 328.16C345.079 328.213 345.007 328.243 344.933 328.243H344.934Z" fill="#292A2E"/>
</g>
<path d="M24.2753 327.743L23.4886 327.59L35.7843 203.704L36.571 203.858L24.2753 327.743Z" fill="#494949"/>
<path d="M70.0589 327.743L69.2722 327.59L81.5678 203.704L82.3541 203.858L70.0589 327.743Z" fill="#494949"/>
<path d="M171.26 327.743L172.047 327.59L159.752 203.704L158.965 203.858L171.26 327.743Z" fill="#494949"/>
<path d="M125.477 327.743L126.263 327.59L113.968 203.704L113.181 203.858L125.477 327.743Z" fill="#494949"/>
<path d="M109.171 149.182L108.377 149.29L115.56 203.836L116.354 203.728L109.171 149.182Z" fill="#494949"/>
<path d="M26.7251 149.181L25.931 149.289L33.1139 203.835L33.9079 203.728L26.7251 149.181Z" fill="#494949"/>
<path d="M116.285 199.786H35.6437C33.468 199.786 31.7042 201.575 31.7042 203.781V203.781C31.7042 205.987 33.468 207.776 35.6437 207.776H116.285C118.461 207.776 120.225 205.987 120.225 203.781V203.781C120.225 201.575 118.461 199.786 116.285 199.786Z" fill="#292A2E"/>
<path opacity="0.8" d="M116.285 199.786H35.6437C33.468 199.786 31.7042 201.575 31.7042 203.781V203.781C31.7042 205.987 33.468 207.776 35.6437 207.776H116.285C118.461 207.776 120.225 205.987 120.225 203.781V203.781C120.225 201.575 118.461 199.786 116.285 199.786Z" fill="white"/>
<path d="M116.283 208.182H35.6437C34.4998 208.171 33.4065 207.702 32.6015 206.878C31.7965 206.054 31.3449 204.941 31.3449 203.781C31.3449 202.621 31.7965 201.508 32.6015 200.684C33.4065 199.86 34.4998 199.392 35.6437 199.38H116.283C117.427 199.392 118.521 199.86 119.326 200.684C120.131 201.508 120.582 202.621 120.582 203.781C120.582 204.941 120.131 206.054 119.326 206.878C118.521 207.702 117.427 208.171 116.283 208.182ZM35.6437 200.193C34.7116 200.203 33.821 200.585 33.1654 201.257C32.5097 201.929 32.142 202.836 32.142 203.781C32.142 204.726 32.5097 205.633 33.1654 206.305C33.821 206.977 34.7116 207.36 35.6437 207.37H116.283C117.216 207.36 118.106 206.977 118.762 206.305C119.417 205.633 119.785 204.726 119.785 203.781C119.785 202.836 119.417 201.929 118.762 201.257C118.106 200.585 117.216 200.203 116.283 200.193H35.6437Z" fill="#292A2E"/>
<path d="M160.545 199.786H79.9039C77.7282 199.786 75.9644 201.575 75.9644 203.781V203.781C75.9644 205.987 77.7282 207.776 79.9039 207.776H160.545C162.721 207.776 164.485 205.987 164.485 203.781V203.781C164.485 201.575 162.721 199.786 160.545 199.786Z" fill="white"/>
<path d="M160.546 208.182H79.9043C79.3308 208.187 78.7619 208.078 78.2305 207.859C77.6991 207.64 77.2157 207.317 76.8082 206.908C76.4007 206.499 76.0773 206.012 75.8565 205.475C75.6358 204.938 75.5221 204.363 75.5221 203.781C75.5221 203.2 75.6358 202.624 75.8565 202.087C76.0773 201.55 76.4007 201.063 76.8082 200.654C77.2157 200.245 77.6991 199.922 78.2305 199.703C78.7619 199.484 79.3308 199.375 79.9043 199.38H160.546C161.119 199.375 161.688 199.484 162.219 199.703C162.751 199.922 163.234 200.245 163.642 200.654C164.049 201.063 164.373 201.55 164.593 202.087C164.814 202.624 164.928 203.2 164.928 203.781C164.928 204.363 164.814 204.938 164.593 205.475C164.373 206.012 164.049 206.499 163.642 206.908C163.234 207.317 162.751 207.64 162.219 207.859C161.688 208.078 161.119 208.187 160.546 208.182ZM79.9043 200.193C79.4364 200.188 78.9721 200.277 78.5383 200.455C78.1046 200.633 77.7099 200.896 77.3773 201.23C77.0446 201.564 76.7805 201.961 76.6003 202.399C76.4201 202.837 76.3273 203.307 76.3273 203.781C76.3273 204.256 76.4201 204.725 76.6003 205.163C76.7805 205.601 77.0446 205.998 77.3773 206.332C77.7099 206.666 78.1046 206.929 78.5383 207.107C78.9721 207.285 79.4364 207.375 79.9043 207.37H160.546C161.014 207.375 161.478 207.285 161.912 207.107C162.345 206.929 162.74 206.666 163.073 206.332C163.405 205.998 163.669 205.601 163.85 205.163C164.03 204.725 164.123 204.256 164.123 203.781C164.123 203.307 164.03 202.837 163.85 202.399C163.669 201.961 163.405 201.564 163.073 201.23C162.74 200.896 162.345 200.633 161.912 200.455C161.478 200.277 161.014 200.188 160.546 200.193H79.9043Z" fill="#292A2E"/>
<path d="M104.753 149.235H26.5445C25.2659 149.235 24.0309 148.763 23.0702 147.907C22.1095 147.052 21.4887 145.871 21.3236 144.586L16.1503 104.305C16.0536 103.552 16.1163 102.786 16.3345 102.06C16.5526 101.334 16.9211 100.663 17.4153 100.092C17.9094 99.5217 18.518 99.0647 19.2002 98.7516C19.8825 98.4385 20.6228 98.2765 21.3716 98.2766H99.58C100.859 98.2766 102.094 98.7484 103.054 99.6039C104.015 100.459 104.636 101.64 104.801 102.926L109.974 143.207C110.071 143.96 110.008 144.725 109.79 145.451C109.572 146.177 109.203 146.848 108.709 147.419C108.215 147.989 107.607 148.446 106.924 148.759C106.242 149.073 105.502 149.235 104.753 149.235Z" fill="#292A2E"/>
<path opacity="0.8" d="M104.753 149.235H26.5445C25.2659 149.235 24.0309 148.763 23.0702 147.907C22.1095 147.052 21.4887 145.871 21.3236 144.586L16.1503 104.305C16.0536 103.552 16.1163 102.786 16.3345 102.06C16.5526 101.334 16.9211 100.663 17.4153 100.092C17.9094 99.5217 18.518 99.0647 19.2002 98.7516C19.8825 98.4385 20.6228 98.2765 21.3716 98.2766H99.58C100.859 98.2766 102.094 98.7484 103.054 99.6039C104.015 100.459 104.636 101.64 104.801 102.926L109.974 143.207C110.071 143.96 110.008 144.725 109.79 145.451C109.572 146.177 109.203 146.848 108.709 147.419C108.215 147.989 107.607 148.446 106.924 148.759C106.242 149.073 105.502 149.235 104.753 149.235Z" fill="white"/>
<path d="M104.753 149.641H26.5445C25.1696 149.638 23.8424 149.129 22.8093 148.209C21.7761 147.289 21.107 146.021 20.9262 144.639L15.7529 104.358C15.6488 103.548 15.7164 102.724 15.9511 101.943C16.1859 101.161 16.5823 100.439 17.1141 99.8252C17.6458 99.2113 18.3006 98.7194 19.0347 98.3825C19.7688 98.0456 20.5654 97.8713 21.3712 97.8713H99.58C100.955 97.8745 102.282 98.3833 103.316 99.3034C104.349 100.223 105.018 101.492 105.199 102.875L110.372 143.155C110.476 143.965 110.408 144.789 110.173 145.57C109.939 146.352 109.542 147.074 109.01 147.688C108.479 148.302 107.824 148.793 107.09 149.13C106.356 149.467 105.559 149.642 104.753 149.642V149.641ZM21.3712 98.6828C20.6794 98.6828 19.9955 98.8325 19.3652 99.1218C18.7349 99.4111 18.1727 99.8334 17.7162 100.361C17.2596 100.888 16.9193 101.507 16.7178 102.179C16.5163 102.85 16.4583 103.557 16.5477 104.252L21.7205 144.533C21.8757 145.72 22.4502 146.809 23.3373 147.599C24.2244 148.389 25.3639 148.826 26.5445 148.828H104.753C105.445 148.828 106.129 148.679 106.76 148.389C107.39 148.1 107.952 147.678 108.409 147.15C108.866 146.623 109.206 146.003 109.407 145.332C109.609 144.661 109.667 143.954 109.577 143.258L104.404 102.977C104.249 101.791 103.674 100.702 102.787 99.9118C101.9 99.1221 100.76 98.6854 99.58 98.6828H21.3712Z" fill="#292A2E"/>
<path d="M109.176 149.235H30.9671C29.6885 149.235 28.4535 148.763 27.4927 147.907C26.5319 147.052 25.911 145.871 25.7458 144.586L20.5725 104.305C20.4759 103.552 20.5388 102.786 20.757 102.06C20.9752 101.334 21.3436 100.663 21.8378 100.093C22.3319 99.522 22.9404 99.065 23.6226 98.7518C24.3048 98.4387 25.045 98.2767 25.7939 98.2766H104.003C105.281 98.2766 106.516 98.7484 107.477 99.6039C108.438 100.459 109.059 101.64 109.224 102.926L114.397 143.207C114.494 143.96 114.431 144.725 114.213 145.451C113.995 146.177 113.626 146.848 113.132 147.419C112.638 147.989 112.029 148.446 111.347 148.759C110.665 149.073 109.925 149.235 109.176 149.235Z" fill="white"/>
<path d="M109.176 149.641H30.9671C29.5922 149.638 28.265 149.129 27.2318 148.209C26.1986 147.289 25.5296 146.021 25.3488 144.639L20.1756 104.358C20.0715 103.548 20.139 102.724 20.3738 101.943C20.6085 101.161 21.0049 100.439 21.5367 99.8252C22.0684 99.2113 22.7232 98.7194 23.4573 98.3825C24.1915 98.0456 24.988 97.8713 25.7939 97.8713H104.003C105.378 97.8744 106.705 98.3832 107.738 99.3033C108.772 100.223 109.44 101.492 109.621 102.875L114.794 143.155C114.898 143.965 114.831 144.789 114.596 145.57C114.361 146.352 113.965 147.074 113.433 147.688C112.901 148.302 112.247 148.793 111.512 149.13C110.778 149.467 109.982 149.642 109.176 149.642V149.641ZM25.7939 98.6828C25.102 98.6828 24.418 98.8325 23.7877 99.1218C23.1574 99.4111 22.5952 99.8334 22.1387 100.361C21.6821 100.888 21.3417 101.507 21.1402 102.178C20.9386 102.85 20.8806 103.557 20.9699 104.252L26.1432 144.533C26.2982 145.72 26.8726 146.809 27.7597 147.599C28.6469 148.389 29.7865 148.826 30.9671 148.828H109.176C109.868 148.829 110.552 148.679 111.182 148.39C111.813 148.1 112.375 147.678 112.832 147.151C113.288 146.623 113.629 146.003 113.83 145.332C114.032 144.661 114.09 143.954 114 143.258L108.827 102.977C108.672 101.791 108.098 100.701 107.21 99.9111C106.323 99.1212 105.184 98.6843 104.003 98.6816L25.7939 98.6828Z" fill="#292A2E"/>
<path d="M219.477 307.024C219.477 307.024 221.625 318.312 232.048 318.941C242.472 319.569 240.212 327.989 240.212 327.989H200.378V307.811L219.477 307.024Z" fill="black"/>
<path d="M143.695 299.897C143.695 299.897 140.708 310.987 149.788 316.217C158.867 321.447 153.173 327.989 153.173 327.989L117.43 310.16L126.215 292.053L143.695 299.897Z" fill="black"/>
<path d="M111.621 36.8696C111.621 36.8696 116.817 32.8923 118.105 23.7371C119.102 16.6483 112.653 21.2406 112.653 21.2406C112.653 21.2406 113.322 16.1297 109.649 16.6366C105.976 17.1434 103.921 22.5134 103.921 22.5134" fill="#0C0C0C"/>
<path d="M90.6667 17.2347C90.6667 17.2347 72.443 19.2159 79.0307 44.2536L80.6434 44.3629L83.9168 44.5854" fill="#0C0C0C"/>
<path d="M108.568 70.4017C108.488 70.3911 107.599 85.3476 90.4604 84.0447C78.5957 83.1439 74.3653 70.3806 74.0934 70.3806C75.3728 70.1048 76.9534 69.6865 77.5819 69.5427C78.9511 69.2204 80.1911 68.4831 81.1369 67.4288C82.0827 66.3745 82.6894 65.0532 82.8765 63.6407C83.2238 61.5206 82.6362 50.6734 82.816 48.5282L101.028 52.6501C100.774 57.1806 98.9928 67.6838 105.234 69.5427C106.275 69.8501 107.393 70.1328 108.568 70.4017Z" fill="#E98862"/>
<path opacity="0.52" d="M101.284 65.2502C100.999 64.3181 100.815 63.3572 100.736 62.3845C100.537 60.1647 100.577 57.9294 100.857 55.7185C97.1549 55.2119 93.6675 53.6627 90.7908 51.2469C90.4528 52.5133 88.5929 58.0465 89.1085 59.2503C90.0798 61.5251 94.6531 65.2502 101.284 65.2502Z" fill="#0C0C0C"/>
<path d="M97.5255 62.2899C90.3402 61.6364 81.7405 57.0336 81.6167 47.1445L81.5046 38.222C81.3808 28.3329 86.4027 20.2504 95.586 20.1322C104.769 20.0136 111.733 27.9418 111.857 37.8305L111.907 41.7806C111.901 43.1373 111.803 44.4919 111.615 45.8351C111.144 49.3889 110.413 54.7917 108.035 58.447C105.789 61.8972 102.116 62.7074 97.5255 62.2899Z" fill="#E98862"/>
<path d="M100.859 53.2508C102.342 53.319 103.819 53.0328 105.173 52.4154C105.201 52.4033 105.226 52.3857 105.248 52.3637C105.269 52.3416 105.286 52.3155 105.297 52.2869C105.308 52.2583 105.314 52.2277 105.314 52.1968C105.313 52.166 105.307 52.1355 105.295 52.1071C105.283 52.0788 105.266 52.053 105.244 52.0315C105.222 52.0099 105.197 51.9929 105.169 51.9814C105.14 51.9698 105.11 51.9641 105.08 51.9644C105.049 51.9648 105.019 51.9712 104.991 51.9833C102.075 53.2443 99.427 53.0595 97.3336 51.4492C97.2914 51.4153 97.2474 51.3837 97.2018 51.3546C97.1492 51.3298 97.0894 51.326 97.0341 51.3438C96.9789 51.3616 96.9322 51.3997 96.9033 51.4507C96.8744 51.5017 96.8653 51.5618 96.878 51.6191C96.8906 51.6765 96.924 51.727 96.9715 51.7607C96.9883 51.7713 97.0152 51.7928 97.0516 51.8224C98.1522 52.6723 99.4779 53.1697 100.859 53.2508Z" fill="#0C0C0C"/>
<path d="M100.79 55.4785C101.058 55.4954 101.326 55.4889 101.593 55.459C101.654 55.4524 101.71 55.4215 101.749 55.3731C101.788 55.3246 101.806 55.2626 101.799 55.2007C101.793 55.1388 101.762 55.082 101.714 55.0428C101.667 55.0037 101.605 54.9854 101.544 54.9919C99.9393 55.165 99.1734 54.4193 99.141 54.3872C99.0971 54.3451 99.0388 54.3221 98.9784 54.3229C98.9181 54.3237 98.8604 54.3484 98.8177 54.3916C98.775 54.4349 98.7506 54.4934 98.7497 54.5546C98.7488 54.6158 98.7715 54.6749 98.8129 54.7194C99.3657 55.1962 100.064 55.4643 100.79 55.4785Z" fill="#0C0C0C"/>
<path d="M108.825 43.6822C109.449 43.6822 109.956 43.1687 109.956 42.5352C109.956 41.9018 109.449 41.3883 108.825 41.3883C108.2 41.3883 107.693 41.9018 107.693 42.5352C107.693 43.1687 108.2 43.6822 108.825 43.6822Z" fill="#0C0C0C"/>
<path d="M97.7738 42.9792C98.3986 42.9792 98.905 42.4657 98.905 41.8322C98.905 41.1988 98.3986 40.6853 97.7738 40.6853C97.1491 40.6853 96.6427 41.1988 96.6427 41.8322C96.6427 42.4657 97.1491 42.9792 97.7738 42.9792Z" fill="#0C0C0C"/>
<path d="M82.2248 50.1499C79.4341 50.1861 77.134 47.188 77.0976 44.3584C77.0611 41.5288 79.3047 39.9396 82.0954 39.9034L83.5571 41.7806L84.6234 50.1191L82.2248 50.1499Z" fill="#E98862"/>
<path d="M84.9995 45.6033C84.9995 45.6033 85.942 31.6105 90.1267 30.7467C92.9138 30.1712 99.6725 34.1794 105.933 32.9687C108.672 32.4407 111.272 33.1266 111.536 34.4381C111.641 34.9575 113.347 27.4931 109.058 21.8299C105.643 17.3217 94.4684 16.0464 89.3845 17.5248C75.3075 21.6195 81.5194 40.5196 81.5194 40.5196L82.1471 45.3433L84.9995 45.6033Z" fill="#0C0C0C"/>
<path d="M102.544 49.9486C102.55 49.949 102.556 49.949 102.562 49.9486C103.461 49.9393 104.969 49.8223 104.963 49.14C104.957 48.5746 103.371 42.4895 103.189 41.7974C103.169 41.7435 103.13 41.699 103.079 41.6726C103.029 41.6462 102.971 41.6398 102.916 41.6547C102.861 41.6695 102.813 41.7045 102.782 41.7529C102.751 41.8012 102.739 41.8595 102.748 41.9164C103.453 44.6115 104.503 48.7607 104.507 49.1457C104.42 49.3081 103.491 49.4751 102.56 49.4848C102.501 49.4861 102.445 49.5102 102.403 49.5521C102.362 49.594 102.337 49.6506 102.336 49.7102C102.334 49.7697 102.355 49.8276 102.394 49.872C102.433 49.9164 102.488 49.9438 102.546 49.9486H102.544Z" fill="#0C0C0C"/>
<path d="M105.614 36.3165C106.559 36.0527 107.557 36.0527 108.502 36.3165C108.966 36.443 109.409 36.6396 109.816 36.8997C110.218 37.1543 110.587 37.4594 110.913 37.8078C110.976 37.8693 111.012 37.9531 111.014 38.0414C111.017 38.1297 110.985 38.2155 110.926 38.2802C110.866 38.345 110.785 38.3837 110.698 38.388C110.61 38.3923 110.525 38.3619 110.46 38.3033L110.44 38.2854C110.137 38.0017 109.801 37.7576 109.438 37.5589C109.083 37.3613 108.699 37.2196 108.302 37.1385C107.519 36.9717 106.707 37.0177 105.948 37.2717L105.916 37.2831C105.79 37.328 105.653 37.3206 105.533 37.2625C105.413 37.2045 105.321 37.1005 105.276 36.9734C105.232 36.8464 105.239 36.7067 105.296 36.5851C105.354 36.4635 105.456 36.3699 105.582 36.325L105.614 36.3165Z" fill="#0C0C0C"/>
<path d="M98.9215 36.892C98.2023 36.5376 97.4036 36.3822 96.6062 36.4416C96.2015 36.4683 95.8031 36.557 95.4245 36.7047C95.0398 36.8529 94.6748 37.0494 94.3382 37.2896L94.3166 37.3042C94.2443 37.3512 94.157 37.3681 94.0728 37.3515C93.9885 37.3348 93.9139 37.286 93.8642 37.215C93.8146 37.1439 93.7939 37.0563 93.8064 36.9702C93.8189 36.8841 93.8636 36.8062 93.9312 36.7527C94.3008 36.4516 94.7063 36.1989 95.1381 36.0005C95.5754 35.798 96.0402 35.663 96.5169 35.6C96.9943 35.532 97.4787 35.5308 97.9565 35.5964C98.4469 35.6582 98.9261 35.7905 99.3797 35.9891C99.5019 36.043 99.5979 36.1438 99.6468 36.2695C99.6956 36.3952 99.6932 36.5354 99.6401 36.6593C99.587 36.7831 99.4875 36.8805 99.3635 36.93C99.2396 36.9796 99.1013 36.9771 98.9791 36.9232C98.9699 36.9192 98.9603 36.9147 98.9515 36.9099L98.9215 36.892Z" fill="#0C0C0C"/>
<path d="M104.269 26.6835C106.335 26.246 107.494 23.3922 106.859 20.3095C106.224 17.2269 104.035 15.0826 101.969 15.5202C99.9032 15.9578 98.7436 18.8115 99.3789 21.8942C100.014 24.9769 102.204 27.1211 104.269 26.6835Z" fill="#0C0C0C"/>
<path d="M121.557 296.764L151.699 200.351H97.0624C86.087 200.351 81.5118 190.914 81.5118 179.787C81.5118 168.659 92.3014 158.905 103.276 158.905H177.016C183.709 158.905 191.215 163.055 194.889 168.729C198.563 174.403 197.57 183.195 194.908 189.422L146.64 308.286" fill="#262626"/>
<path opacity="0.8" d="M121.557 296.764L151.699 200.351H97.0624C86.087 200.351 81.5118 190.914 81.5118 179.787C81.5118 168.659 92.3014 158.905 103.276 158.905H177.016C183.709 158.905 191.215 163.055 194.889 168.729C198.563 174.403 197.57 183.195 194.908 189.422L146.64 308.286" fill="#0A0A0A"/>
<path d="M198.087 317.507L147.688 200.351L81.511 200.346C66.0048 199.114 58.9032 190.497 59.1291 179.372C59.3518 168.388 64.8371 157.539 75.6215 157.539H164.816C172.795 157.706 179.073 166.646 182.033 174.16L223.932 310.334" fill="#262626"/>
<path d="M54.6156 157.674C54.6156 157.674 51.6767 177.106 56.3352 187.909C62.151 201.397 83.9528 200.347 83.9528 200.347L82.7243 157.54L54.6156 157.674Z" fill="#262626"/>
<path d="M183.929 157.291L137.183 147.47C135.235 147.061 133.421 146.16 131.907 144.851C130.394 143.542 129.23 141.867 128.525 139.982L110.139 90.8577C109.579 89.3834 109.312 87.8115 109.353 86.2323C109.394 84.653 109.743 83.0976 110.378 81.6553C111.014 80.213 111.925 78.9122 113.058 77.8277C114.191 76.7433 115.524 75.8965 116.98 75.3359C118.437 74.7754 119.989 74.5122 121.546 74.5615C123.103 74.6108 124.636 74.9715 126.055 75.6231C127.475 76.2746 128.753 77.204 129.817 78.358C130.881 79.512 131.71 80.8678 132.256 82.3475L148.339 125.317L188.73 133.803C188.73 133.803 184.74 157.461 183.929 157.291Z" fill="#1F41BB"/>
<path d="M129.863 103.334C129.323 109.765 125.496 149.882 124.976 157.803H54.6464C54.2422 150.659 52.4277 119.422 50.8955 105.451C49.4327 92.1213 47.3822 86.0552 49.067 81.9125C52.0383 74.6065 61.4964 71.3435 67.9014 70.4647C71.8121 69.9277 77.6944 69.5427 77.6944 69.5427C77.6944 69.5427 78.1927 79.7584 90.0686 80.327C106.235 81.0986 105.155 69.5427 105.236 69.5427C107.854 69.5427 122.11 71.4739 125.675 73.8295C130.71 77.157 132.198 81.6912 132.257 85.8574C132.324 90.6539 130.475 96.0397 129.863 103.334Z" fill="#1F41BB"/>
<path d="M127.099 136.113H127.082C127.056 136.111 127.03 136.103 127.007 136.091C126.983 136.079 126.963 136.062 126.946 136.042C126.929 136.021 126.916 135.998 126.908 135.972C126.9 135.947 126.897 135.92 126.899 135.893L128.725 113.656C128.726 113.629 128.733 113.603 128.745 113.579C128.756 113.555 128.773 113.533 128.793 113.516C128.813 113.498 128.837 113.485 128.862 113.478C128.887 113.47 128.914 113.467 128.94 113.47C128.967 113.472 128.992 113.48 129.016 113.492C129.039 113.504 129.06 113.521 129.077 113.541C129.094 113.562 129.107 113.585 129.115 113.611C129.123 113.636 129.126 113.663 129.124 113.689L127.298 135.927C127.293 135.978 127.271 136.025 127.234 136.059C127.197 136.094 127.149 136.113 127.099 136.113Z" fill="#0C0C0C"/>
<path d="M138.405 153.392L153.837 105.296C154.108 104.451 154.636 103.714 155.345 103.192C156.054 102.67 156.908 102.388 157.785 102.388H220.654C221.31 102.388 221.956 102.546 222.54 102.847C223.123 103.149 223.629 103.587 224.014 104.124C224.399 104.662 224.653 105.284 224.755 105.941C224.858 106.597 224.805 107.269 224.603 107.901L209.171 155.997C208.9 156.842 208.372 157.579 207.663 158.101C206.954 158.623 206.099 158.904 205.223 158.904H142.354C141.698 158.904 141.052 158.747 140.468 158.445C139.884 158.144 139.379 157.706 138.994 157.169C138.609 156.631 138.355 156.008 138.253 155.352C138.15 154.696 138.203 154.024 138.405 153.392Z" fill="#292A2E"/>
<path opacity="0.2" d="M138.405 153.392L153.837 105.296C154.108 104.451 154.636 103.714 155.345 103.192C156.054 102.67 156.908 102.388 157.785 102.388H220.654C221.31 102.388 221.956 102.546 222.54 102.847C223.123 103.149 223.629 103.587 224.014 104.124C224.399 104.662 224.653 105.284 224.755 105.941C224.858 106.597 224.805 107.269 224.603 107.901L209.171 155.997C208.9 156.842 208.372 157.579 207.663 158.101C206.954 158.623 206.099 158.904 205.223 158.904H142.354C141.698 158.904 141.052 158.747 140.468 158.445C139.884 158.144 139.379 157.706 138.994 157.169C138.609 156.631 138.355 156.008 138.253 155.352C138.15 154.696 138.203 154.024 138.405 153.392Z" fill="white"/>
<path d="M150.993 155.005H108.909C107.86 155.005 107.01 155.867 107.01 156.93V156.979C107.01 158.042 107.86 158.904 108.909 158.904H150.993C152.042 158.904 152.892 158.042 152.892 156.979V156.93C152.892 155.867 152.042 155.005 150.993 155.005Z" fill="#292A2E"/>
<path opacity="0.2" d="M150.993 155.005H108.909C107.86 155.005 107.01 155.867 107.01 156.93V156.979C107.01 158.042 107.86 158.904 108.909 158.904H150.993C152.042 158.904 152.892 158.042 152.892 156.979V156.93C152.892 155.867 152.042 155.005 150.993 155.005Z" fill="white"/>
<path d="M181.504 139.678C185.146 139.678 188.098 136.685 188.098 132.993C188.098 129.3 185.146 126.307 181.504 126.307C177.862 126.307 174.91 129.3 174.91 132.993C174.91 136.685 177.862 139.678 181.504 139.678Z" fill="white"/>
<path d="M130.5 94.3693H113.782V115.157H130.5V94.3693Z" fill="white"/>
<path d="M113.782 111.704C112.428 111.704 111.105 111.297 109.979 110.534C108.853 109.772 107.976 108.687 107.457 107.419C106.939 106.151 106.804 104.755 107.068 103.409C107.332 102.062 107.984 100.825 108.941 99.8545C109.899 98.8837 111.119 98.2226 112.447 97.9548C113.775 97.687 115.151 97.8244 116.402 98.3498C117.653 98.8752 118.722 99.7649 119.475 100.906C120.227 102.048 120.628 103.39 120.628 104.763C120.626 106.603 119.904 108.367 118.621 109.669C117.338 110.97 115.597 111.702 113.782 111.704ZM113.782 100.665C112.983 100.665 112.201 100.905 111.537 101.356C110.872 101.806 110.354 102.446 110.048 103.195C109.742 103.944 109.662 104.768 109.818 105.563C109.974 106.358 110.359 107.088 110.924 107.661C111.49 108.234 112.21 108.625 112.994 108.783C113.778 108.941 114.591 108.86 115.329 108.549C116.068 108.239 116.699 107.714 117.143 107.04C117.588 106.366 117.825 105.573 117.824 104.763C117.823 103.676 117.397 102.634 116.639 101.866C115.882 101.098 114.854 100.666 113.782 100.665Z" fill="white"/>
<path d="M114.747 107.842C114.594 107.441 114.307 107.107 113.936 106.898C113.565 106.689 113.133 106.62 112.717 106.702C112.725 106.682 112.729 106.661 112.729 106.64L113.29 106.386C113.683 106.217 114.006 105.915 114.205 105.532C114.403 105.149 114.465 104.708 114.38 104.283C114.321 104.019 114.205 103.77 114.04 103.557C113.875 103.343 113.665 103.169 113.426 103.047C113.187 102.925 112.924 102.859 112.656 102.853C112.388 102.846 112.123 102.901 111.878 103.011L110.555 103.611C110.555 103.606 110.555 103.6 110.553 103.595C110.547 103.584 110.541 103.574 110.533 103.565C110.859 103.316 111.092 102.962 111.194 102.562C111.297 102.161 111.262 101.737 111.096 101.359C110.729 100.352 109.427 100.271 108.566 100.661L105.108 102.075L106.152 101.002C106.479 100.652 106.662 100.189 106.666 99.7069C106.669 99.2248 106.492 98.7593 106.17 98.4046C105.997 98.2275 105.791 98.0878 105.563 97.9943C105.336 97.9007 105.092 97.8551 104.846 97.8604C104.6 97.8656 104.358 97.9216 104.135 98.0248C103.911 98.128 103.711 98.2763 103.546 98.4607L91.2483 112.078L95.4542 116.185C96.7601 117.46 98.4121 118.311 100.198 118.629C101.984 118.946 103.823 118.716 105.479 117.966L112.975 114.559C113.368 114.39 113.691 114.088 113.889 113.705C114.088 113.322 114.15 112.881 114.065 112.457C113.98 112.076 113.777 111.733 113.486 111.477C113.195 111.221 112.831 111.067 112.447 111.035C112.452 111.014 112.452 110.992 112.448 110.971C112.443 110.95 112.435 110.93 112.423 110.912C112.412 110.894 112.396 110.879 112.379 110.867C112.361 110.855 112.341 110.847 112.32 110.843L113.704 110.217C114.142 110.029 114.494 109.679 114.687 109.238C114.881 108.797 114.902 108.298 114.747 107.842Z" fill="#E98862"/>
<path opacity="0.2" d="M108.055 104.763C108.015 104.763 107.977 104.749 107.946 104.724C107.915 104.698 107.895 104.663 107.887 104.623C107.88 104.584 107.886 104.543 107.905 104.508C107.925 104.472 107.955 104.445 107.992 104.43L110.332 103.496C110.352 103.488 110.374 103.484 110.397 103.484C110.419 103.485 110.441 103.49 110.461 103.499C110.482 103.508 110.5 103.521 110.516 103.537C110.531 103.553 110.544 103.572 110.552 103.593C110.56 103.614 110.564 103.637 110.564 103.66C110.563 103.682 110.558 103.704 110.55 103.725C110.541 103.746 110.528 103.765 110.512 103.78C110.496 103.796 110.477 103.809 110.456 103.817L108.117 104.751C108.097 104.759 108.076 104.763 108.055 104.763Z" fill="#0C0C0C"/>
<path opacity="0.2" d="M109.36 108.117C109.321 108.117 109.283 108.103 109.252 108.078C109.222 108.052 109.201 108.017 109.194 107.978C109.186 107.938 109.193 107.898 109.211 107.863C109.23 107.828 109.26 107.8 109.297 107.785L112.497 106.48C112.538 106.466 112.583 106.468 112.623 106.486C112.663 106.504 112.694 106.537 112.71 106.579C112.727 106.62 112.727 106.666 112.71 106.707C112.694 106.748 112.663 106.781 112.623 106.8L109.424 108.105C109.404 108.113 109.382 108.117 109.36 108.117Z" fill="#0C0C0C"/>
<path opacity="0.2" d="M110.756 111.759C110.716 111.759 110.677 111.744 110.647 111.719C110.616 111.693 110.596 111.657 110.589 111.617C110.581 111.577 110.588 111.536 110.608 111.501C110.628 111.466 110.659 111.439 110.696 111.425L112.221 110.845C112.264 110.829 112.31 110.83 112.351 110.849C112.392 110.868 112.425 110.902 112.44 110.945C112.456 110.988 112.455 111.035 112.436 111.077C112.418 111.119 112.384 111.151 112.342 111.167L110.816 111.748C110.797 111.755 110.776 111.759 110.756 111.759Z" fill="#0C0C0C"/>
<path d="M118.303 81.1465C118.23 81.1466 118.157 81.126 118.094 81.087C118.031 81.048 117.98 80.9922 117.947 80.9256C117.035 79.1227 115.9 76.8784 116.028 74.5256C116.13 72.6546 116.995 70.9922 117.83 69.3868C118.37 68.4163 118.831 67.4024 119.206 66.3553C119.665 64.9105 119.78 63.3763 119.544 61.8776C119.307 60.3789 118.725 58.958 117.844 57.7305C117.811 57.6878 117.787 57.6388 117.773 57.5864C117.759 57.534 117.756 57.4793 117.763 57.4255C117.77 57.3718 117.788 57.32 117.815 57.2733C117.843 57.2266 117.879 57.1859 117.922 57.1537C117.965 57.1215 118.014 57.0983 118.066 57.0855C118.118 57.0728 118.172 57.0708 118.225 57.0796C118.278 57.0884 118.328 57.1078 118.374 57.1368C118.419 57.1657 118.458 57.2035 118.489 57.248C119.445 58.5801 120.078 60.1223 120.335 61.7491C120.593 63.3759 120.468 65.0414 119.971 66.61C119.582 67.7003 119.104 68.756 118.542 69.7661C117.709 71.3659 116.922 72.8767 116.83 74.5707C116.714 76.7034 117.749 78.7499 118.662 80.5552C118.693 80.6171 118.708 80.6861 118.706 80.7556C118.703 80.825 118.683 80.8927 118.647 80.952C118.612 81.0114 118.561 81.0604 118.502 81.0945C118.442 81.1285 118.374 81.1465 118.306 81.1465H118.303Z" fill="white"/>
<path d="M124.735 87.4855C124.647 87.4855 124.56 87.4556 124.49 87.4005C124.42 87.3453 124.37 87.2681 124.348 87.1809C124.325 87.0937 124.332 87.0015 124.367 86.9188C124.403 86.8361 124.464 86.7676 124.541 86.724C126.026 85.8939 126.192 83.5833 125.495 81.8292C125.149 81.023 124.744 80.244 124.284 79.4988C123.669 78.5332 123.168 77.4971 122.794 76.4121C122.411 75.0893 122.387 73.6865 122.724 72.351C123.061 71.0156 123.747 69.7968 124.709 68.823C124.786 68.7491 124.888 68.7088 124.993 68.7109C125.099 68.713 125.2 68.7572 125.273 68.8341C125.347 68.9109 125.387 69.0141 125.386 69.1212C125.385 69.2282 125.342 69.3305 125.267 69.4058C124.409 70.2743 123.798 71.3611 123.497 72.5519C123.197 73.7428 123.218 74.9937 123.559 76.1733C123.915 77.1969 124.39 78.1741 124.973 79.0845C125.455 79.8644 125.877 80.6802 126.237 81.525C127.054 83.5789 126.872 86.3479 124.928 87.4348C124.869 87.4679 124.803 87.4853 124.735 87.4855Z" fill="white"/>
<path d="M105.348 122.888L46.3652 147.638C44.2386 148.521 41.9045 148.756 39.6481 148.316C37.3916 147.875 35.3106 146.778 33.6593 145.158C32.0079 143.538 30.8577 141.465 30.3493 139.193C29.8408 136.921 29.9961 134.548 30.7961 132.364L48.388 83.6455C50.6624 77.4364 57.0694 73.8661 63.1936 76.1725C66.1343 77.28 68.5207 79.5265 69.8278 82.4179C71.1348 85.3093 71.2556 88.6088 70.1634 91.5904L62.1394 114.649L96.7079 101.136" fill="#1F41BB"/>
<path d="M105.204 123.109C105.173 123.109 105.142 123.099 105.116 123.081C105.09 123.064 105.07 123.038 105.058 123.009L96.4756 101.402L62.0228 114.884C61.9943 114.895 61.9632 114.898 61.9332 114.891C61.9033 114.885 61.8759 114.87 61.8543 114.848C61.8327 114.826 61.8179 114.798 61.8117 114.767C61.8055 114.737 61.8081 114.705 61.8193 114.677L67.1468 100.813C67.162 100.773 67.192 100.741 67.2303 100.724C67.2686 100.707 67.3119 100.706 67.3509 100.722C67.3898 100.737 67.4211 100.768 67.4379 100.807C67.4547 100.845 67.4556 100.889 67.4404 100.929L62.2427 114.454L96.5073 101.047C96.5459 101.031 96.5889 101.032 96.6268 101.049C96.6648 101.066 96.6948 101.097 96.7104 101.136L105.35 122.889C105.366 122.929 105.365 122.972 105.349 123.011C105.332 123.05 105.302 123.081 105.263 123.098C105.244 123.105 105.224 123.109 105.204 123.109Z" fill="#0C0C0C"/>
<path d="M51.2024 119.174C51.1655 119.174 51.1296 119.161 51.1011 119.138C51.0726 119.114 51.0532 119.081 51.0463 119.044C51.0394 119.007 51.0455 118.969 51.0635 118.936C51.0815 118.904 51.1102 118.879 51.1447 118.865L61.9355 114.56C61.9548 114.552 61.9755 114.548 61.9965 114.548C62.0174 114.548 62.0381 114.553 62.0573 114.561C62.0766 114.569 62.094 114.581 62.1086 114.596C62.1232 114.612 62.1346 114.63 62.1423 114.649C62.15 114.669 62.1537 114.69 62.1533 114.711C62.1529 114.733 62.1483 114.754 62.1398 114.773C62.1313 114.792 62.1191 114.81 62.1039 114.824C62.0887 114.839 62.0708 114.85 62.0512 114.858L51.2601 119.163C51.2417 119.17 51.2221 119.174 51.2024 119.174Z" fill="#0C0C0C"/>
<path d="M53.7155 144.748C53.679 144.748 53.6435 144.736 53.6152 144.712C53.5868 144.689 53.5675 144.656 53.5604 144.62C53.5533 144.583 53.5589 144.545 53.5762 144.513C53.5936 144.48 53.6216 144.455 53.6554 144.441L105.146 122.802C105.165 122.794 105.185 122.789 105.206 122.789C105.227 122.789 105.247 122.794 105.266 122.802C105.285 122.81 105.303 122.822 105.317 122.836C105.332 122.851 105.344 122.869 105.352 122.888C105.359 122.908 105.363 122.928 105.363 122.949C105.363 122.97 105.359 122.991 105.351 123.01C105.343 123.03 105.332 123.047 105.317 123.062C105.302 123.077 105.285 123.089 105.266 123.097L53.7756 144.736C53.7566 144.744 53.7362 144.748 53.7155 144.748Z" fill="#0C0C0C"/>
<path d="M315.127 274.982C315.021 274.982 314.919 274.939 314.844 274.863C314.28 274.29 313.36 263.792 310.882 232.534C309.868 219.743 308.91 207.662 308.212 200.321C308.162 199.796 307.961 199.735 307.895 199.715C306.939 199.422 304.029 201.749 302.405 203.785C302.338 203.869 302.241 203.923 302.135 203.934C302.03 203.945 301.924 203.914 301.841 203.846C301.759 203.778 301.706 203.68 301.695 203.573C301.683 203.466 301.715 203.359 301.781 203.275C302.856 201.928 306.357 198.397 308.126 198.937C308.482 199.046 308.927 199.36 309.009 200.242C309.709 207.591 310.666 219.675 311.681 232.468C313.186 251.463 314.892 272.983 315.453 274.338C315.496 274.399 315.521 274.471 315.527 274.545C315.532 274.62 315.518 274.694 315.484 274.761C315.45 274.827 315.399 274.883 315.336 274.922C315.273 274.961 315.201 274.982 315.127 274.982Z" fill="#494949"/>
<path d="M307.183 213.792C313.829 208.39 316.032 199.982 312.103 195.012C308.174 190.041 299.6 190.392 292.953 195.794C286.307 201.196 284.103 209.604 288.033 214.575C291.962 219.545 300.536 219.194 307.183 213.792Z" fill="#1F41BB"/>
<path opacity="0.2" d="M307.183 213.792C313.829 208.39 316.032 199.982 312.103 195.012C308.174 190.041 299.6 190.392 292.953 195.794C286.307 201.196 284.103 209.604 288.033 214.575C291.962 219.545 300.536 219.194 307.183 213.792Z" fill="white"/>
<path d="M289.896 215.839C289.858 215.839 289.821 215.828 289.788 215.807C289.756 215.787 289.731 215.757 289.715 215.722C289.698 215.687 289.692 215.648 289.697 215.61C289.702 215.572 289.718 215.536 289.742 215.506L308.685 192.344C308.702 192.323 308.722 192.306 308.746 192.293C308.769 192.28 308.795 192.272 308.821 192.269C308.848 192.267 308.874 192.269 308.9 192.277C308.925 192.285 308.949 192.298 308.969 192.315C308.99 192.332 309.007 192.354 309.019 192.378C309.031 192.401 309.039 192.428 309.041 192.455C309.043 192.481 309.04 192.508 309.032 192.534C309.024 192.56 309.011 192.583 308.993 192.604L290.05 215.766C290.031 215.789 290.008 215.807 289.981 215.82C289.954 215.833 289.925 215.839 289.896 215.839Z" fill="white"/>
<path d="M319.259 270.016C319.195 270.016 319.132 270.001 319.075 269.971C319.019 269.941 318.97 269.898 318.932 269.845C318.895 269.793 318.871 269.732 318.862 269.667C318.853 269.603 318.86 269.538 318.881 269.476L325.996 248.728C326.206 248.118 326.563 247.572 327.035 247.138C327.506 246.705 328.078 246.398 328.697 246.247C329.316 246.095 329.962 246.104 330.577 246.271C331.192 246.439 331.756 246.76 332.217 247.206L335.978 250.85C336.055 250.924 336.1 251.026 336.102 251.134C336.104 251.242 336.065 251.346 335.991 251.424C335.918 251.502 335.817 251.547 335.711 251.549C335.604 251.552 335.502 251.511 335.425 251.437L331.663 247.793C331.299 247.442 330.854 247.188 330.369 247.056C329.884 246.924 329.373 246.917 328.885 247.037C328.396 247.156 327.945 247.398 327.573 247.74C327.2 248.082 326.918 248.514 326.753 248.995L319.637 269.743C319.61 269.823 319.559 269.892 319.491 269.941C319.423 269.99 319.342 270.016 319.259 270.016Z" fill="#494949"/>
<path d="M346.489 262.337C351.415 258.384 351.122 249.689 345.835 242.916C340.548 236.144 332.269 233.859 327.343 237.812C322.417 241.765 322.71 250.46 327.997 257.233C333.284 264.005 341.563 266.291 346.489 262.337Z" fill="#1F41BB"/>
<path d="M311.895 273.658C311.805 273.658 311.717 273.628 311.647 273.571C311.576 273.514 311.526 273.435 311.505 273.347L299.565 222.724C299.483 222.379 299.309 222.063 299.062 221.812C298.815 221.56 298.504 221.383 298.164 221.299C297.824 221.215 297.468 221.228 297.135 221.336C296.801 221.444 296.504 221.643 296.275 221.911L292.594 226.224C292.56 226.264 292.518 226.298 292.471 226.321C292.424 226.345 292.372 226.36 292.32 226.364C292.267 226.367 292.215 226.361 292.165 226.344C292.115 226.327 292.069 226.3 292.029 226.266C291.989 226.231 291.956 226.188 291.933 226.14C291.909 226.093 291.895 226.041 291.891 225.988C291.888 225.934 291.894 225.881 291.911 225.83C291.927 225.78 291.954 225.733 291.988 225.692L295.669 221.38C295.995 220.999 296.418 220.716 296.891 220.563C297.365 220.41 297.871 220.393 298.354 220.512C298.837 220.632 299.278 220.884 299.629 221.241C299.979 221.598 300.226 222.046 300.342 222.536L312.283 273.159C312.308 273.264 312.29 273.374 312.235 273.466C312.179 273.558 312.09 273.624 311.987 273.649C311.956 273.656 311.926 273.659 311.895 273.658Z" fill="#494949"/>
<path d="M307.491 237.47C308.942 228.959 305.101 221.18 298.91 220.094C292.72 219.009 286.525 225.028 285.073 233.539C283.621 242.05 287.463 249.83 293.654 250.915C299.844 252.001 306.039 245.981 307.491 237.47Z" fill="#1F41BB"/>
<path d="M315.128 274.982C315.112 274.982 315.095 274.98 315.078 274.978C314.973 274.965 314.877 274.91 314.812 274.825C314.746 274.741 314.717 274.633 314.73 274.526L322.355 211.754C322.438 211.07 322.714 210.424 323.15 209.896C323.586 209.367 324.164 208.977 324.813 208.773C325.462 208.569 326.156 208.56 326.81 208.747C327.465 208.933 328.052 209.307 328.502 209.824L337.217 219.833C337.288 219.914 337.323 220.019 337.317 220.127C337.31 220.234 337.262 220.335 337.182 220.406C337.102 220.478 336.998 220.514 336.892 220.507C336.786 220.5 336.687 220.451 336.616 220.37L327.901 210.362C327.553 209.962 327.099 209.673 326.593 209.529C326.087 209.385 325.551 209.392 325.049 209.55C324.547 209.708 324.101 210.009 323.764 210.418C323.427 210.827 323.214 211.326 323.15 211.855L315.524 274.625C315.512 274.723 315.465 274.813 315.392 274.879C315.319 274.945 315.226 274.981 315.128 274.982Z" fill="#494949"/>
<path d="M346.154 225.394C349.195 219.82 345.617 211.913 338.163 207.732C330.709 203.551 322.201 204.681 319.16 210.254C316.119 215.828 319.697 223.736 327.151 227.917C334.606 232.098 343.114 230.968 346.154 225.394Z" fill="#1F41BB"/>
<path opacity="0.2" d="M346.489 262.337C351.415 258.384 351.122 249.689 345.835 242.916C340.548 236.144 332.269 233.859 327.343 237.812C322.417 241.765 322.71 250.46 327.997 257.233C333.284 264.005 341.563 266.291 346.489 262.337Z" fill="white"/>
<path opacity="0.5" d="M307.491 237.47C308.942 228.959 305.101 221.18 298.91 220.094C292.72 219.009 286.525 225.028 285.073 233.539C283.621 242.05 287.463 249.83 293.654 250.915C299.844 252.001 306.039 245.981 307.491 237.47Z" fill="white"/>
<path opacity="0.5" d="M346.154 225.394C349.195 219.82 345.617 211.913 338.163 207.732C330.709 203.551 322.201 204.681 319.16 210.254C316.119 215.828 319.697 223.736 327.151 227.917C334.606 232.098 343.114 230.968 346.154 225.394Z" fill="white"/>
<path d="M324.88 328.243H305.374L302.142 264.965H328.113L324.88 328.243Z" fill="#292A2E"/>
<path opacity="0.3" d="M324.88 328.243H305.374L302.142 264.965H328.113L324.88 328.243Z" fill="white"/>
<path d="M346.489 262.538C346.459 262.538 346.429 262.531 346.402 262.518C346.374 262.505 346.35 262.485 346.332 262.461L327.185 237.936C327.152 237.893 327.137 237.84 327.143 237.786C327.149 237.733 327.176 237.684 327.217 237.65C327.259 237.617 327.312 237.602 327.365 237.608C327.418 237.614 327.466 237.641 327.499 237.683L346.646 262.209C346.669 262.239 346.684 262.274 346.688 262.312C346.692 262.35 346.686 262.389 346.669 262.423C346.653 262.458 346.627 262.487 346.595 262.507C346.564 262.527 346.527 262.538 346.489 262.538Z" fill="white"/>
<path d="M344.881 227.359C344.839 227.359 344.797 227.345 344.763 227.319L320.262 209.181C320.241 209.165 320.223 209.145 320.209 209.123C320.196 209.1 320.186 209.074 320.182 209.048C320.178 209.022 320.179 208.995 320.186 208.969C320.192 208.943 320.203 208.919 320.219 208.897C320.234 208.875 320.254 208.857 320.276 208.843C320.299 208.829 320.323 208.82 320.349 208.816C320.375 208.812 320.402 208.813 320.428 208.819C320.453 208.826 320.477 208.837 320.499 208.853L344.999 226.992C345.033 227.018 345.058 227.053 345.07 227.094C345.083 227.134 345.083 227.177 345.07 227.218C345.056 227.258 345.031 227.293 344.998 227.318C344.964 227.344 344.923 227.357 344.881 227.358V227.359Z" fill="white"/>
<path d="M292.658 250.651C292.64 250.651 292.623 250.648 292.606 250.644C292.555 250.63 292.511 250.596 292.484 250.549C292.458 250.503 292.451 250.447 292.464 250.395L300.264 220.766C300.271 220.74 300.282 220.715 300.298 220.694C300.314 220.672 300.334 220.654 300.357 220.64C300.38 220.627 300.405 220.618 300.431 220.614C300.458 220.61 300.484 220.612 300.51 220.619C300.536 220.626 300.56 220.638 300.581 220.654C300.602 220.671 300.619 220.691 300.633 220.715C300.646 220.738 300.654 220.764 300.657 220.791C300.66 220.818 300.658 220.845 300.651 220.871L292.852 250.5C292.84 250.543 292.815 250.581 292.78 250.609C292.745 250.636 292.702 250.651 292.658 250.651Z" fill="white"/>
</g>
<defs>
<clipPath id="clip0_77_236">
<rect width="350" height="350" fill="white"/>
</clipPath>
</defs>
</svg>
